<svg version="1" xmlns="http://www.w3.org/2000/svg" width="177.333" height="177.333" viewBox="0 0 133.000000 133.000000"><path d="M45.6 10.9c-.6 1-8.6 23-8.6 23.7 0 .2 11.4.4 25.3.4h25.2l4.3-11.8c2.3-6.4 4.2-12 4.2-12.5 0-1-49.8-.9-50.4.2zM94.4 19.7c-.9 2.7-2.3 6.3-3 8L90.1 31l5.5.1h25.8c1.3-.1 4.6-7.3 6.2-13.6l.6-2.5h-32l-1.8 4.7zM37.1 40.2c-1.1.4-3.2 4.7-5.9 12.1C28.9 58.6 27 64 27 64.4c0 .3 11.2.6 25 .6 22.7 0 25-.2 25.8-1.8 2-3.7 8.3-22.4 7.8-22.9-.8-.8-46.4-.9-48.5-.1zM83.3 53l-3.1 8h32.7l1.9-5.3c1.1-2.8 2.5-6.4 3.1-8L119 45H86.4l-3.1 8zM22.6 75.7c-5.9 15.8-6.5 17.7-6.1 18.1.3.4 35.5.6 47.1.3 2.5-.1 3.4-.7 4.2-2.9 5-13.1 7.2-19.6 7.2-20.8 0-1.2-4.1-1.4-24.9-1.4H25.2l-2.6 6.7zM72.6 81.4c-1.4 4.1-2.6 7.7-2.6 8 0 .4 7.3.5 16.2.4l16.1-.3 2.9-7.8L108 74H75.3l-2.7 7.4zM13.2 101.7c-.5 1.6-2.6 7.1-4.5 12.4l-3.5 9.6h25c28.7 0 25.1 1.5 30-12.5 1.6-4.7 3.4-9.4 3.9-10.4.9-1.7-.2-1.8-24.5-1.8H14.2l-1 2.7zM63.9 106.7c-2.6 6.8-4 11.4-3.5 12.1.3.6 18.6.8 29.3.3 1.7-.1 2.5-1.3 4.1-5.9 1.1-3.1 2.3-6.5 2.7-7.5.7-1.6-.4-1.7-15.4-1.7H65l-1.1 2.7z"/></svg>