<?xml version="1.0" encoding="UTF-8"?><svg width="130" height="130" version="1.1" viewBox="0 0 130 130" xmlns="http://www.w3.org/2000/svg" xmlns:xlink="http://www.w3.org/1999/xlink"><!--Generated by IJSVG (https://github.com/iconjar/IJSVG)--><g transform="scale(6.5)"><path fill="none" d="M0,0h20v20h-20Z"></path><path fill="#000" d="M8.54,12.74c0,-0.87 -0.24,-1.61 -0.72,-2.22c-0.73,-0.92 -2.14,-1.03 -2.96,-0.85c-0.34,-1.93 1.3,-4.39 3.42,-5.45l-1.63,-2.28c-3.2,1.52 -6.34,5.02 -5.8,9.43c0.34,2.79 1.95,4.63 4.23,4.63c1,0 1.83,-0.29 2.48,-0.88c0.66,-0.59 0.98,-1.38 0.98,-2.38Zm9.43,0c0,-0.87 -0.24,-1.61 -0.72,-2.22c-0.73,-0.92 -2.14,-1.03 -2.96,-0.85c-0.34,-1.93 1.3,-4.39 3.42,-5.45l-1.63,-2.28c-3.2,1.52 -6.34,5.02 -5.8,9.43c0.34,2.79 1.95,4.63 4.23,4.63c1,0 1.83,-0.29 2.48,-0.88c0.66,-0.59 0.98,-1.38 0.98,-2.38Z"></path></g></svg>